<?xml version="1.0" encoding="UTF-8"?>
<svg id="Layer_2" data-name="Layer 2" xmlns="http://www.w3.org/2000/svg" viewBox="0 0 140.45 140.45">
  <defs>
    <style>
      .cls-1 {
        stroke-linecap: round;
        stroke-linejoin: round;
      }

      .cls-1, .cls-2 {
        fill: #1b33bf;
      }

      .cls-1, .cls-3 {
        stroke: #fff;
        stroke-width: 4px;
      }

      .cls-3 {
        fill: none;
        stroke-miterlimit: 22.93;
      }
    </style>
  </defs>
  <g id="Layer_1-2" data-name="Layer 1">
    <g>
      <circle class="cls-2" cx="70.22" cy="70.22" r="70.22"/>
      <g>
        <path class="cls-1" d="M56.49,27.78c-.39,11.93,4.77,39.87,5.88,47.49,1.11,7.61,1.36,17.45,2.79,22.64s3.61,22.3,9.62,22.3c5.58,0,6.09-14.53,6.49-21.27s2-25.82,1.76-36.62,1.1-29.5.63-35.87c-6.71-1.22-21.82,1.96-27.18,1.33Z"/>
        <path class="cls-1" d="M72.7,30.82c-6.81,0-11.56-.31-16.44.11s-19.48,2.75-20.49,3.98c-.86,1.04-.83,6.58,0,10.03.74,3.08,4.68,12.4,6.59,15.11,1.6,2.28,4.57,8.18,4.86,8.52s9.09.97,15.16.36,16.26-2.46,21.18-2.78,10.76-.44,10.76-.44c0,0,3.41-8.11,3.43-11.85s3.26-17.82,3.26-21.67c-4.85-2.91-21.48-1.36-28.3-1.37Z"/>
        <path class="cls-3" d="M35.76,43.56s14.13-4.47,19.95-2.22-5.59,12.26,6.68,12.51c10.13.21,26.7-2.37,36.44-8.52"/>
        <path class="cls-3" d="M41.5,59.38s5.4-2.25,11.23,0,9.46,3.47,16.95,2.7c8.35-.85,14.89-5.4,27.68-5.4"/>
        <path class="cls-3" d="M81,102.89c-2.51.96-2.52,9.14-5.47,8.69-4.18-.64-5.75-9.25-6.1-16.78-.39-8.38-1.66-14.45-.96-27.23"/>
        <path class="cls-3" d="M82.81,84.66c-2.51.96.24,8.4-2.7,7.95-4.18-.64-5.75-9.25-6.1-16.78-.17-3.67.08-5.29-.19-8.83"/>
        <path class="cls-3" d="M35.76,39.05s21.31-4.45,27.49-3.55c13.75,1.99,13.65,9.76,37.03,2.91"/>
        <circle class="cls-3" cx="73.82" cy="102.17" r="3.56"/>
      </g>
    </g>
  </g>
</svg>